<svg width="35" height="19" viewBox="0 0 35 19" fill="none" xmlns="http://www.w3.org/2000/svg">
<rect x="0.708901" y="0.511147" width="33.9777" height="17.6105" rx="1.36319" fill="white" stroke="#B2BCCA" strokeWidth="0.389482"/>
<path d="M27.0103 17.845L34.4104 15.6055V16.6765C34.4104 17.3219 33.8873 17.845 33.242 17.845H27.0103Z" fill="#FD6020"/>
<path d="M23.1499 9.56795L24.4185 7.14998H25.3696L23.4146 10.817H22.939L20.9839 7.14998H21.9351L23.1499 9.56795ZM14.8599 7.149C15.2297 7.14901 15.6523 7.18998 15.9692 7.35115V8.15682C15.7051 7.91506 15.2825 7.75351 14.8599 7.7535C14.0148 7.79378 13.3279 8.35796 13.3804 9.00252V9.08357C13.3804 9.72825 14.0674 10.2115 14.9126 10.2115C15.3351 10.2115 15.7051 10.0508 15.9692 9.80916V10.6148C15.5995 10.7357 15.2297 10.816 14.8071 10.816C13.4864 10.816 12.4292 9.96986 12.4292 8.96248C12.4293 7.91486 13.4864 7.06842 14.8599 7.149ZM10.6333 7.06893C11.1088 7.06893 11.5848 7.23048 11.9546 7.47225L11.479 7.95565C11.2678 7.79453 11.0038 7.67352 10.7397 7.67342C10.4228 7.63312 10.1588 7.83497 10.106 8.07674C10.1062 8.27789 10.2646 8.35806 10.7925 8.51912C11.8488 8.84141 12.1126 9.08363 12.1655 9.56697V9.68807C12.1127 10.3328 11.4258 10.8163 10.5806 10.776C9.94674 10.7759 9.31252 10.5345 8.99561 10.0914L9.57764 9.64803C9.7362 9.92984 10.1055 10.1313 10.5278 10.1314H10.5806C10.8974 10.1314 11.215 9.88985 11.2153 9.60799C11.2153 9.44681 11.1092 9.3253 10.9507 9.24471C10.7394 9.16415 10.5281 9.08383 10.3169 9.04354C9.47189 8.84212 9.20768 8.56001 9.20752 8.07674V8.03572C9.26053 7.47185 9.89402 7.02885 10.6333 7.06893ZM5.14014 7.14998C6.40792 7.19027 7.41151 7.99552 7.35889 8.96248C7.35884 9.48622 7.04232 9.96998 6.51416 10.3326C6.0388 10.6145 5.45739 10.7762 4.87646 10.7359H3.55518V7.14998H5.14014ZM8.62842 10.7359H7.72998V7.14998H8.62842V10.7359ZM28.3364 7.75447H26.6987V8.56014H28.2837V9.16463H26.6987V10.1314H28.3364V10.7359H25.8003V7.14998H28.3364V7.75447ZM30.2358 7.14998C31.2922 7.15 31.8734 7.51206 31.8735 8.19686C31.9263 8.72065 31.4508 9.1641 30.8169 9.24471L32.2437 10.7359H31.1343L29.9185 9.28475H29.813V10.7359H28.9146V7.14998H30.2358ZM4.72217 7.7535H4.45752V10.1304H4.72217C5.14448 10.1707 5.62004 10.0504 5.93701 9.8492C6.25381 9.60756 6.41243 9.28486 6.4126 8.92244C6.4126 8.60008 6.25398 8.27749 5.93701 8.03572C5.62004 7.83436 5.14466 7.71322 4.72217 7.7535ZM29.8169 8.80135H30.0815C30.6626 8.80134 30.9272 8.59947 30.9272 8.2369C30.927 7.91477 30.6624 7.71347 30.0815 7.71346H29.8169V8.80135Z" fill="#333333"/>
<path fillRule="evenodd" clip-rule="evenodd" d="M18.6591 7.06641C17.3384 7.06641 16.229 7.87231 16.229 8.91999C16.229 9.92737 17.2856 10.7736 18.6591 10.8139C20.0327 10.8542 21.0893 10.008 21.1421 8.96028C21.0893 7.91261 20.0327 7.06641 18.6591 7.06641V7.06641Z" fill="#FD6020"/>
</svg>
