<svg width="35" height="19" viewBox="0 0 35 19" fill="none" xmlns="http://www.w3.org/2000/svg">
<rect x="0.273842" y="0.511147" width="33.9777" height="17.6105" rx="1.36319" fill="white" stroke="#B2BCCA" strokeWidth="0.389482"/>
<path d="M12.832 4.06641C16.5324 4.06653 19.5322 6.31818 19.5322 9.0957C19.5322 11.8732 16.5324 14.1249 12.832 14.125C9.1315 14.125 6.13086 11.8733 6.13086 9.0957C6.13087 6.3181 9.13151 4.06641 12.832 4.06641Z" fill="#ED0006"/>
<path d="M21.543 4.06641C25.2433 4.06653 28.2431 6.31817 28.2432 9.0957C28.2432 11.8732 25.2434 14.1249 21.543 14.125C17.8424 14.125 14.8418 11.8733 14.8418 9.0957C14.8418 6.3181 17.8424 4.06641 21.543 4.06641Z" fill="#2F80ED"/>
<path d="M17.1943 5.26953C18.6342 6.19199 19.5478 7.5634 19.5479 9.0957C19.5479 10.6279 18.634 11.9984 17.1943 12.9209C15.7552 11.9984 14.8418 10.6275 14.8418 9.0957C14.8418 7.56373 15.755 6.19198 17.1943 5.26953Z" fill="#6C6BBD"/>
</svg>
