<svg width="35" height="19" viewBox="0 0 35 19" fill="none" xmlns="http://www.w3.org/2000/svg">
<rect x="0.82267" y="0.511147" width="33.9777" height="17.6105" rx="1.36319" fill="white" stroke="#B2BCCA" strokeWidth="0.389482"/>
<path d="M22.4404 4.08984C26.2257 4.08989 29.2939 6.34003 29.2939 9.11523C29.2937 11.8903 26.2255 14.1396 22.4404 14.1396C20.7427 14.1396 19.1904 13.6851 17.9932 12.9355C16.796 13.6851 15.2437 14.1396 13.5459 14.1396C9.76076 14.1396 6.69169 11.8903 6.69141 9.11523C6.69141 6.34 9.76058 4.08984 13.5459 4.08984C15.2434 4.08986 16.796 4.54357 17.9932 5.29297C19.1903 4.54361 20.7429 4.08984 22.4404 4.08984Z" fill="#ED0006"/>
<path d="M22.4482 4.08984C26.2335 4.08989 29.3018 6.34003 29.3018 9.11523C29.3015 11.8903 26.2333 14.1396 22.4482 14.1396C20.7505 14.1396 19.1982 13.6851 18.001 12.9355C19.4729 12.014 20.4071 10.6455 20.4072 9.11523C20.4072 7.58459 19.4733 6.21463 18.001 5.29297C19.1981 4.54361 20.7507 4.08984 22.4482 4.08984Z" fill="#F9A000"/>
<path d="M17.9893 5.29297C19.4616 6.21463 20.3955 7.58459 20.3955 9.11523C20.3953 10.6455 19.4611 12.014 17.9893 12.9355C16.5173 12.014 15.5822 10.6456 15.582 9.11523C15.582 7.58453 16.5168 6.21463 17.9893 5.29297Z" fill="#FD6020"/>
</svg>
