<svg width="36" height="19" viewBox="0 0 36 19" fill="none" xmlns="http://www.w3.org/2000/svg">
<rect x="1.15958" y="0.511147" width="33.9777" height="17.6105" rx="1.36319" fill="white" stroke="#B2BCCA" strokeWidth="0.389482"/>
<path fillRule="evenodd" clip-rule="evenodd" d="M11.8309 12.21H9.74894L8.1877 7.66057C8.1136 7.4513 7.95626 7.26629 7.72481 7.17909C7.14721 6.95996 6.51074 6.78557 5.81641 6.69761V6.52246H9.17033C9.63321 6.52246 9.98038 6.78557 10.0382 7.09114L10.8483 10.3728L12.9293 6.52246H14.9534L11.8309 12.21ZM16.1147 12.21H14.1484L15.7675 6.52246H17.7338L16.1147 12.21ZM20.2738 8.09741C20.3317 7.79108 20.6789 7.61593 21.0839 7.61593C21.7204 7.57195 22.4137 7.65991 22.9923 7.87828L23.3395 6.65373C22.7609 6.47858 22.1244 6.39062 21.5468 6.39062C19.6384 6.39062 18.2497 7.17843 18.2497 8.2718C18.2497 9.10359 19.2334 9.54033 19.9277 9.80344C20.6789 10.0658 20.9682 10.2409 20.9103 10.5033C20.9103 10.8968 20.3317 11.072 19.7541 11.072C19.0598 11.072 18.3654 10.9408 17.73 10.7217L17.3828 11.947C18.0771 12.1653 18.8283 12.2533 19.5227 12.2533C21.6625 12.2965 22.9923 11.5095 22.9923 10.3281C22.9923 8.84048 20.2738 8.75328 20.2738 8.09741ZM29.8768 12.21L28.3155 6.52246H26.6386C26.2914 6.52246 25.9443 6.69761 25.8285 6.95996L22.9375 12.21H24.9616L25.3656 11.379H27.8527L28.0841 12.21H29.8768ZM26.9204 8.05322L27.498 10.1967H25.8789L26.9204 8.05322Z" fill="#28356A"/>
</svg>
