<svg width="32" height="32" viewBox="0 0 32 32" fill="none" xmlns="http://www.w3.org/2000/svg">
<path d="M22.1576 0C22.2321 0 22.3066 0 22.3853 0C22.5679 2.25671 21.7066 3.94291 20.6597 5.16401C19.6325 6.37667 18.226 7.5528 15.951 7.37435C15.7992 5.14996 16.662 3.58881 17.7075 2.37053C18.677 1.23515 20.4546 0.224828 22.1576 0Z" fill="white"/>
<path d="M29.045 23.4892C29.045 23.5116 29.045 23.5313 29.045 23.5524C28.4056 25.4887 27.4937 27.1482 26.3808 28.6883C25.3648 30.0865 24.1199 31.968 21.8969 31.968C19.976 31.968 18.7001 30.7328 16.7315 30.6991C14.649 30.6654 13.5038 31.7319 11.5998 32.0003C11.382 32.0003 11.1642 32.0003 10.9506 32.0003C9.55242 31.798 8.42407 30.6907 7.60204 29.693C5.17812 26.7449 3.30503 22.9369 2.95654 18.0638C2.95654 17.586 2.95654 17.1097 2.95654 16.6319C3.10409 13.1443 4.79872 10.3086 7.05122 8.93438C8.23999 8.20369 9.87421 7.5812 11.6939 7.85943C12.4738 7.98027 13.2705 8.24725 13.9689 8.51143C14.6307 8.76576 15.4584 9.21682 16.2425 9.19293C16.7736 9.17748 17.302 8.90066 17.8373 8.70534C19.4055 8.13905 20.9428 7.48986 22.969 7.79479C25.4042 8.16294 27.1325 9.24493 28.2005 10.9143C26.1405 12.2253 24.5119 14.201 24.7901 17.5748C25.0374 20.6395 26.8192 22.4325 29.045 23.4892Z" fill="white"/>
</svg>
