<svg width="269" height="269" viewBox="0 0 269 269" fill="none" xmlns="http://www.w3.org/2000/svg">
<g opacity="0.4">
<path d="M129.271 129.27C153.069 105.472 153.069 66.8879 129.271 43.0899C105.473 19.292 66.8886 19.292 43.0904 43.0899C19.2922 66.8879 19.2922 105.472 43.0904 129.27C66.8886 153.068 105.473 153.068 129.271 129.27Z" fill="white"/>
<path d="M208.061 147.122C241.717 147.122 269 119.838 269 86.1827C269 52.527 241.717 25.2437 208.061 25.2437C174.405 25.2437 147.121 52.527 147.121 86.1827C147.121 119.838 174.405 147.122 208.061 147.122Z" fill="white"/>
<path d="M86.1809 269C119.837 269 147.121 241.717 147.121 208.061C147.121 174.405 119.837 147.122 86.1809 147.122C52.5248 147.122 25.2412 174.405 25.2412 208.061C25.2412 241.717 52.5248 269 86.1809 269Z" fill="white"/>
<path d="M208.061 269C241.717 269 269 241.717 269 208.061C269 174.405 241.717 147.122 208.061 147.122C174.405 147.122 147.121 174.405 147.121 208.061C147.121 241.717 174.405 269 208.061 269Z" fill="white"/>
</g>
</svg>
