<svg width="271" height="289" viewBox="0 0 271 289" fill="none" xmlns="http://www.w3.org/2000/svg">
<g opacity="0.4">
<path d="M21.4745 81.0178L15.5939 130.069L53.838 134.654C98.6178 140.022 139.208 108.064 144.569 63.3488L150.449 14.298L112.205 9.71303C67.4255 4.34449 26.843 36.238 21.4745 81.0178Z" fill="white"/>
<path d="M231.856 24.0575C187.076 18.689 146.486 50.6472 141.125 95.3623L135.244 144.413L173.488 148.998C218.268 154.367 258.858 122.408 264.219 77.6932L270.1 28.6425L231.856 24.0575Z" fill="white"/>
<path d="M5.88072 211.086L0.000149307 260.137L38.2442 264.722C83.024 270.091 123.614 238.132 128.975 193.417L134.856 144.367L96.6116 139.782C51.8318 134.413 11.2415 166.371 5.88072 211.086Z" fill="white"/>
<path d="M125.531 225.431L119.651 274.482L157.895 279.067C202.674 284.435 243.265 252.477 248.625 207.762L254.506 158.711L216.262 154.126C171.482 148.758 130.892 180.716 125.531 225.431Z" fill="white"/>
</g>
</svg>
