<svg width="254" height="254" viewBox="0 0 254 254" fill="none" xmlns="http://www.w3.org/2000/svg">
<g opacity="0.4">
<path d="M63.5008 63.5002H64.3683C99.1255 63.1532 127.116 34.7575 127.001 0.000357175C92.2434 -0.115307 63.8478 27.8755 63.5008 62.6327V63.5002C28.6858 63.3845 0.34797 91.3753 0.000976562 126.133V127H0.86846C35.6256 126.595 63.6165 98.2574 63.5008 63.5002C63.3851 98.2574 91.376 126.595 126.133 127H127.001V126.133C126.596 91.3753 98.258 63.3845 63.5008 63.5002Z" fill="white"/>
<path d="M127 126.133V127H127.867C162.625 126.653 190.615 98.2574 190.5 63.5002C190.384 98.2574 218.375 126.595 253.132 127H254V126.133C253.653 91.3754 225.315 63.3846 190.5 63.5002C155.743 63.3846 127.405 91.3754 127 126.133Z" fill="white"/>
<path d="M189.632 63.5002H190.499V62.6327C190.152 27.8177 161.757 -0.115307 126.999 0.000357911C126.884 34.7575 154.875 63.0953 189.632 63.5002Z" fill="white"/>
<path d="M63.5002 190.5H64.3677C99.1248 190.153 127.116 161.757 127 127C92.2428 126.884 63.8472 154.875 63.5002 189.632C63.0953 154.875 34.7575 126.884 0.000357175 127C-0.115307 161.757 27.8755 190.153 62.6327 190.5H63.5002C63.3845 225.315 91.3753 253.653 126.133 254H127V253.132C126.595 218.375 98.2574 190.384 63.5002 190.5Z" fill="white"/>
<path d="M190.499 189.632C190.152 154.875 161.757 126.884 126.999 127C126.884 161.757 154.875 190.153 189.632 190.5H190.499C155.742 190.384 127.404 218.375 126.999 253.132V254H127.867C162.624 253.653 190.615 225.315 190.499 190.5H191.367C226.124 190.153 254.115 161.757 253.999 127C219.242 126.884 190.904 154.875 190.499 189.632Z" fill="white"/>
</g>
</svg>
