<svg width="24" height="24" viewBox="0 0 24 24" fill="none" xmlns="http://www.w3.org/2000/svg">
<path d="M2 2L10 10" stroke="white" strokeWidth="2" strokeLinecap="round" strokeLinejoin="round"/>
<path d="M22 2L14 10" stroke="white" strokeWidth="2" strokeLinecap="round" strokeLinejoin="round"/>
<path d="M12 14C17.5228 14 22 11.7614 22 9C22 6.23858 17.5228 4 12 4C6.47715 4 2 6.23858 2 9C2 11.7614 6.47715 14 12 14Z" stroke="white" strokeWidth="2" strokeLinecap="round" strokeLinejoin="round"/>
<path d="M7 13.4V21.3" stroke="white" strokeWidth="2" strokeLinecap="round" strokeLinejoin="round"/>
<path d="M12 14V22" stroke="white" strokeWidth="2" strokeLinecap="round" strokeLinejoin="round"/>
<path d="M17 13.4V21.3" stroke="white" strokeWidth="2" strokeLinecap="round" strokeLinejoin="round"/>
<path d="M2 9V17C2 18.3261 3.05357 19.5979 4.92893 20.5355C6.8043 21.4732 9.34784 22 12 22C14.6522 22 17.1957 21.4732 19.0711 20.5355C20.9464 19.5979 22 18.3261 22 17V9" stroke="white" strokeWidth="2" strokeLinecap="round" strokeLinejoin="round"/>
</svg>
