<svg width="20" height="21" viewBox="0 0 20 21" fill="none" xmlns="http://www.w3.org/2000/svg">
<path d="M3.33366 4.21323L16.667 17.5466M11.667 12.7433C11.2247 13.1392 10.6406 13.3799 10.0003 13.3799C8.61961 13.3799 7.50033 12.2606 7.50033 10.8799C7.50033 10.2396 7.74104 9.65552 8.1369 9.21323M16.3401 13.8863C16.8163 13.4718 17.2422 13.0548 17.6089 12.669C18.5752 11.6522 18.5752 10.1075 17.6089 9.09081C15.9791 7.376 13.1799 5.04656 10.0003 5.04656C9.25751 5.04656 8.53547 5.17369 7.84424 5.39043M5.41699 6.54938C4.20152 7.32526 3.16502 8.27721 2.39175 9.09081C1.42541 10.1075 1.42541 11.6522 2.39175 12.669C4.02157 14.3838 6.82073 16.7132 10.0003 16.7132C11.5571 16.7132 13.0226 16.1548 14.3044 15.3836" stroke="#A1A1A1" strokeWidth="0.833333" strokeLinecap="round"/>
</svg>
