<svg width="106" height="107" viewBox="0 0 106 107" fill="none" xmlns="http://www.w3.org/2000/svg">
<path d="M60.9047 -2.12351C61.8601 4.53869 62.497 10.8836 61.2232 17.5458C59.3123 27.0632 54.5353 34.6772 48.4844 41.6566C49.1213 32.1392 43.3889 23.8908 36.3825 17.8631C27.1469 10.5664 15.3635 6.44217 3.58014 9.2974C-5.01854 11.8354 -14.8911 18.4976 -13.9357 28.3322C-13.6172 32.4564 -8.84018 33.4082 -5.01854 32.7737C2.62473 31.5047 9.3126 30.8702 16.9559 32.1392C26.1915 34.0427 33.5163 38.8014 40.5226 44.5118C32.8794 44.5118 25.873 48.0016 20.459 53.0775C20.1406 53.712 19.5036 54.0293 18.8667 54.6638C9.3126 65.4502 3.58014 81.6298 10.9049 94.9542C14.7266 101.299 20.7775 108.596 28.7392 106.692C31.9239 105.741 32.8794 101.934 32.5609 98.7611C31.287 91.1472 30.0131 83.8505 31.6055 76.2366C33.5163 67.9881 36.701 61.0087 42.115 54.6638C42.4334 54.3465 42.7519 54.3465 43.0704 53.712C44.9812 74.0158 66.9556 87.9747 86.7007 84.485C90.8408 83.8505 94.344 82.2643 97.8472 79.7263C102.943 75.9193 108.038 69.5744 105.172 63.2294C104.854 62.9122 104.535 62.5949 104.217 62.2777C102.943 61.3259 101.35 60.6914 99.758 60.6914C90.8408 61.3259 81.6052 63.8639 72.6881 60.6914C72.3696 60.6914 71.7327 60.6914 71.4142 60.6914C64.4079 58.4707 58.0385 54.981 52.6245 49.905C61.5416 49.905 69.5034 44.8291 75.2358 37.8497C76.5097 36.2634 77.7836 34.6772 78.739 32.7737C82.5606 25.477 85.4269 17.8631 84.7899 9.61464C84.153 2.00071 80.6498 -4.97873 74.5989 -9.73744C71.7327 -11.9582 68.2295 -13.8617 64.4079 -12.5927C60.2677 -11.0064 59.9493 -5.93047 60.9047 -2.12351Z" fill="#707070"/>
</svg>
