<svg width="32" height="32" viewBox="0 0 32 32" fill="none" xmlns="http://www.w3.org/2000/svg">
<path d="M30.08 16.333C30.08 15.293 29.9867 14.293 29.8133 13.333H16V19.0063H23.8933C23.5533 20.8397 22.52 22.393 20.9667 23.433V27.113H25.7067C28.48 24.5597 30.08 20.7997 30.08 16.333Z" fill="#4285F4"/>
<path d="M15.9997 30.6666C19.9597 30.6666 23.2797 29.3533 25.7064 27.1133L20.9664 23.4333C19.6531 24.3133 17.9731 24.8333 15.9997 24.8333C12.1797 24.8333 8.9464 22.2533 7.79307 18.7866H2.89307V22.5866C5.3064 27.38 10.2664 30.6666 15.9997 30.6666Z" fill="#34A853"/>
<path d="M7.79301 18.7864C7.49968 17.9064 7.33301 16.9664 7.33301 15.9998C7.33301 15.0331 7.49968 14.0931 7.79301 13.2131V9.41309H2.89301C1.86634 11.4569 1.3321 13.7126 1.33301 15.9998C1.33301 18.3664 1.89968 20.6064 2.89301 22.5864L7.79301 18.7864Z" fill="#FBBC05"/>
<path d="M15.9997 7.16634C18.1531 7.16634 20.0864 7.90634 21.6064 9.35967L25.8131 5.15301C23.2731 2.78634 19.9531 1.33301 15.9997 1.33301C10.2664 1.33301 5.3064 4.61967 2.89307 9.41301L7.79307 13.213C8.9464 9.74634 12.1797 7.16634 15.9997 7.16634Z" fill="#EA4335"/>
</svg>
