<svg width="353" height="632" viewBox="0 0 353 632" fill="none" xmlns="http://www.w3.org/2000/svg">
<path d="M0 317.098C0.430312 317.124 0.863953 317.139 1.30078 317.139C13.0649 317.139 22.6024 307.602 22.6025 295.838C22.6025 284.074 13.0651 274.536 1.30078 274.536C0.86396 274.536 0.430305 274.551 0 274.577V24C0 10.7452 10.7452 0 24 0H329C342.255 0 353 10.7452 353 24V274.577C352.569 274.551 352.135 274.536 351.698 274.536C339.934 274.536 330.397 284.074 330.397 295.838C330.398 307.602 339.934 317.138 351.698 317.139C352.135 317.139 352.569 317.124 353 317.098V608C353 621.255 342.255 632 329 632H291.905C291.967 631.467 292 630.925 292 630.376C292 622.644 285.732 616.376 278 616.376C270.268 616.376 264 622.644 264 630.376C264 630.925 264.032 631.467 264.094 632H249.905C249.967 631.467 250 630.925 250 630.376C250 622.644 243.732 616.376 236 616.376C228.268 616.376 222 622.644 222 630.376C222 630.925 222.032 631.467 222.094 632H207.905C207.967 631.467 208 630.925 208 630.376C208 622.644 201.732 616.376 194 616.376C186.268 616.376 180 622.644 180 630.376C180 630.925 180.032 631.467 180.094 632H165.905C165.967 631.467 166 630.925 166 630.376C166 622.644 159.732 616.376 152 616.376C144.268 616.376 138 622.644 138 630.376C138 630.925 138.032 631.467 138.094 632H123.905C123.967 631.467 124 630.925 124 630.376C124 622.644 117.732 616.376 110 616.376C102.268 616.376 96 622.644 96 630.376C96 630.925 96.0322 631.467 96.0938 632H81.9053C81.9669 631.467 82 630.925 82 630.376C82 622.644 75.732 616.376 68 616.376C60.268 616.376 54 622.644 54 630.376C54 630.925 54.0322 631.467 54.0938 632H24C10.7452 632 6.44258e-07 621.255 0 608V317.098Z" fill="#252525"/>
<line x1="6.99316" y1="296" x2="353.006" y2="296" stroke="black" stroke-dasharray="7 7"/>
</svg>
