<svg width="17" height="16" viewBox="0 0 17 16" fill="none" xmlns="http://www.w3.org/2000/svg">
<path d="M16.7765 6.65715L13.0971 10.2438L13.966 15.3095C14.0038 15.531 13.9128 15.7549 13.7309 15.8872C13.6281 15.9622 13.5059 16 13.3836 16C13.2897 16 13.1952 15.9776 13.1089 15.9321L8.55948 13.5404L4.01062 15.9315C3.81215 16.0366 3.57056 16.0195 3.38863 15.8866C3.2067 15.7543 3.11574 15.5304 3.15354 15.3089L4.02244 10.2432L0.342477 6.65715C0.181811 6.50003 0.123333 6.26494 0.193034 6.0517C0.262735 5.83847 0.447619 5.68194 0.670307 5.64945L5.7555 4.91109L8.02964 0.302578C8.2287 -0.100859 8.89026 -0.100859 9.08932 0.302578L11.3635 4.91109L16.4487 5.64945C16.6713 5.68194 16.8562 5.83788 16.9259 6.0517C16.9956 6.26553 16.9371 6.49944 16.7765 6.65715Z" fill="#FEEA4F"/>
</svg>
