<svg width="198" height="155" viewBox="0 0 198 155" fill="none" xmlns="http://www.w3.org/2000/svg">
<path d="M83.5908 6.81641C88.0015 6.55808 92.6089 8.57945 95.0293 12.3223L95.2568 12.6904C96.5882 14.9438 96.9101 17.6292 96.8369 20.1416C96.7819 22.0317 96.5076 23.7729 96.291 25.1377L96.1045 26.3691C95.9186 27.7493 95.8282 29.2247 96.1611 30.6611L96.2334 30.9473V30.9482C96.5664 32.1668 97.2147 33.2245 97.9922 34.1514L98.332 34.54C99.1777 35.4684 100.14 36.3053 101.02 37.1299C101.8 37.8616 102.532 38.5974 103.141 39.4297L103.394 39.793C104.712 41.7781 105.364 44.1484 105.45 46.5469V46.5479C105.624 51.481 103.406 56.0377 100.376 59.9189L99.7598 60.6855C96.6169 64.4913 92.8758 67.8716 88.9053 70.8379L88.1084 71.4258C84.1533 74.3061 79.9029 76.7824 75.4541 78.8213L74.5615 79.2227C70.0837 81.2051 65.4101 82.7492 60.6328 83.8232L59.6758 84.0312C54.5681 85.1088 49.3461 85.6481 44.1279 85.6123L43.0967 85.5986C38.2779 85.5031 33.4141 84.9618 28.7822 83.6924L27.793 83.4092C22.7836 81.9108 18.0898 79.3686 14.6445 75.457L14.3154 75.0742C11.3025 71.4924 9.45757 66.9012 9.87109 62.2461L9.91797 61.7949C10.4368 57.4911 12.7294 53.4297 16.0635 50.6592L16.3896 50.3955C18.0328 49.0996 19.9116 48.1285 21.9219 47.5762L22.3252 47.4717C24.4928 46.9412 26.686 46.8133 28.9551 46.5596L29.9326 46.4414C32.2906 46.1322 34.8002 45.5924 36.8477 44.1133L37.25 43.8047C38.9078 42.4613 39.9748 40.621 40.7178 38.7207L40.8623 38.3398C41.5952 36.348 42.0558 34.2029 42.6035 32.1904C43.1231 30.2812 43.7287 28.4549 44.7256 26.8184L44.9297 26.4932C45.9892 24.8697 47.4678 23.6589 49.251 22.9248L49.6123 22.7842C51.2959 22.1653 53.0821 21.931 54.9121 21.752L56.7549 21.5791C59.0611 21.3558 61.529 21.0632 63.7363 20.0068L64.1738 19.7852C66.0645 18.7738 67.5637 17.2461 68.9404 15.708L70.2861 14.1855C71.9431 12.3227 73.7228 10.6492 75.8145 9.36426L76.2373 9.1123C78.3495 7.89332 80.6939 7.07527 83.1074 6.85254L83.5908 6.81641Z" fill="#7B20A9" stroke="white"/>
<path d="M126.753 153.938L98.1872 102.354L54.488 107.146C54.488 107.146 45.614 127.944 44.1992 153.938H126.754H126.753Z" fill="white"/>
<path d="M126.624 153.968C126.532 153.968 126.441 153.919 126.393 153.833L98.0415 102.635L54.6711 107.392C53.8971 109.266 45.8499 129.282 44.4735 153.704C44.4651 153.85 44.3391 153.965 44.1951 153.953C44.0499 153.944 43.9383 153.82 43.9467 153.674C45.3903 128.047 54.1563 107.25 54.2451 107.042C54.2823 106.955 54.3639 106.894 54.4599 106.884L98.1591 102.091C98.2647 102.08 98.3679 102.133 98.4195 102.226L126.856 153.577C126.927 153.704 126.88 153.865 126.753 153.936C126.712 153.959 126.669 153.97 126.626 153.97L126.624 153.968Z" fill="black"/>
<path d="M85.5898 154.203C85.579 154.203 85.5682 154.203 85.5574 154.201C85.4122 154.183 85.3102 154.051 85.327 153.907L85.8742 149.457C86.2762 146.186 88.423 143.385 91.4782 142.147L92.7274 141.641C92.863 141.585 93.0166 141.651 93.0718 141.786C93.127 141.921 93.061 142.075 92.9266 142.13L91.6774 142.637C88.7998 143.803 86.7778 146.441 86.3998 149.522L85.8526 153.972C85.8358 154.106 85.7218 154.203 85.591 154.203H85.5898Z" fill="black"/>
<path d="M87.0762 49.5264C94.8879 49.5597 102.795 49.8693 108.225 50.7617L109.276 50.9482C116.19 52.2676 121.984 56.7753 126.071 61C128.11 63.1072 129.713 65.1315 130.805 66.6289C131.35 67.3772 131.768 67.9932 132.049 68.4209C132.189 68.6347 132.296 68.8015 132.366 68.9141C132.401 68.9704 132.428 69.0136 132.445 69.042C132.454 69.0558 132.46 69.0664 132.464 69.0732C132.466 69.0767 132.468 69.0795 132.469 69.0811L132.47 69.083L133.365 68.6455L128.9 57.043L149.62 57.8994C149.638 57.9337 149.658 57.9716 149.68 58.0127C149.804 58.2501 149.983 58.6002 150.202 59.0479C150.642 59.9436 151.243 61.2293 151.886 62.7861C153.174 65.9036 154.624 70.0904 155.298 74.3984C155.973 78.7153 155.857 83.0903 154.083 86.6318C152.38 90.0315 149.108 92.7418 143.316 93.8682L142.748 93.9717C140.378 94.3787 137.464 94.0687 134.393 93.3457C131.329 92.6247 128.15 91.5034 125.267 90.3252C122.385 89.1476 119.809 87.9162 117.952 86.9795C117.024 86.5113 116.277 86.1168 115.763 85.8398C115.506 85.7015 115.306 85.5929 115.172 85.5186C115.105 85.4814 115.053 85.4527 115.019 85.4336C115.002 85.4241 114.989 85.4168 114.98 85.4121C114.976 85.4098 114.974 85.4074 114.972 85.4062L114.969 85.4053L114.45 85.1123L114.251 85.6729V85.6738L114.25 85.6748C114.249 85.6764 114.249 85.6794 114.248 85.6826C114.246 85.6893 114.242 85.6996 114.237 85.7129C114.228 85.7395 114.213 85.779 114.194 85.8311C114.157 85.9356 114.101 86.091 114.028 86.29C113.883 86.6881 113.67 87.2645 113.402 87.9756C112.866 89.3982 112.108 91.3603 111.22 93.5186C109.437 97.8483 107.147 102.924 105.08 106.033C104.119 107.478 102.221 108.723 99.4727 109.718C96.7373 110.708 93.2265 111.427 89.1338 111.869C81.462 112.698 71.8048 112.545 61.5029 111.42L59.4346 111.183C53.9883 110.524 50.9416 108.483 49.3535 105.881C47.7517 103.257 47.5669 99.9552 48.0801 96.6523C48.5921 93.357 49.7884 90.1291 50.8643 87.7158C51.401 86.5118 51.9057 85.5156 52.2754 84.8213C52.4602 84.4742 52.6114 84.2025 52.7158 84.0186C52.768 83.9266 52.8087 83.8562 52.8359 83.8096C52.8494 83.7866 52.8595 83.7692 52.8662 83.7578C52.8696 83.7521 52.8724 83.7478 52.874 83.7451C52.8748 83.7438 52.8756 83.7428 52.876 83.7422V83.7412L52.0303 83.208C47.9157 89.3955 44.1889 94.9234 41.1846 99.3477L38.4336 103.388C35.2507 108.049 29.3006 109.95 24.0781 107.97L23.5752 107.766C19.2962 105.919 16.052 102.757 14.499 97.1387C12.9843 91.6581 13.0719 83.8135 15.4609 72.542L15.6992 71.4404C15.9841 70.1507 16.6496 69.4226 17.5586 68.9678C18.5049 68.4944 19.7338 68.3082 21.1514 68.1885C22.5346 68.0717 24.1071 68.0179 25.5879 67.7744C26.9885 67.5441 28.376 67.1359 29.5664 66.3037L29.8018 66.1318C38.7796 59.2634 48.7707 54.765 55.0488 52.3447L56.2539 51.8877C59.0979 50.8294 62.078 50.1975 65.1035 50.0088L65.709 49.9775C70.582 49.7689 78.7553 49.4909 87.0762 49.5264Z" fill="#FAE75F" stroke="black"/>
<path d="M136.902 59.7716L122.705 34.346L132.157 31.4648L145.32 58.1445L136.902 59.7716Z" fill="black"/>
<path d="M124.93 19.7363H133.693V36.6239H124.93C121.716 36.6239 119.107 34.0151 119.107 30.8015V25.5587C119.107 22.3451 121.716 19.7363 124.93 19.7363Z" fill="white" fill-opacity="0.18"/>
<path d="M133.694 36.8883H124.93C121.574 36.8883 118.844 34.1583 118.844 30.8019V25.5591C118.844 22.2027 121.574 19.4727 124.93 19.4727H133.694C133.84 19.4727 133.958 19.5903 133.958 19.7367V36.6243C133.958 36.7707 133.839 36.8883 133.694 36.8883ZM124.93 20.0019C121.865 20.0019 119.372 22.4955 119.372 25.5603V30.8031C119.372 33.8679 121.865 36.3615 124.93 36.3615H133.43V20.0019H124.93Z" fill="black"/>
<path d="M191.188 7.42277C191.188 7.42277 189.811 -0.325631 183.969 0.299569C179.703 0.756769 152.545 10.1024 138.194 15.1148C132.885 16.9688 129.329 21.9776 129.329 27.602C129.329 34.3604 134.423 40.0316 141.143 40.754L184.528 45.416C184.528 45.416 189.13 44.8424 191.325 37.7864C193.519 30.7316 191.188 7.42397 191.188 7.42397V7.42277Z" fill="white" fill-opacity="0.18"/>
<path d="M184.527 45.6783C184.517 45.6783 184.507 45.6783 184.498 45.6771L141.113 41.0151C134.243 40.2771 129.062 34.5099 129.062 27.6015C129.062 21.8727 132.696 16.7547 138.103 14.8659C153.401 9.52349 179.698 0.492289 183.938 0.0374887C189.958 -0.608111 191.432 7.29749 191.446 7.37669C191.447 7.38389 191.448 7.38989 191.448 7.39709C191.544 8.35109 193.761 30.8391 191.574 37.8639C189.354 44.9991 184.752 45.6519 184.558 45.6771C184.547 45.6783 184.536 45.6795 184.525 45.6795L184.527 45.6783ZM184.614 0.528292C184.414 0.528292 184.209 0.539095 183.996 0.561895C179.809 1.0107 153.556 10.0275 138.28 15.3639C133.084 17.1783 129.593 22.0959 129.593 27.6015C129.593 34.2399 134.571 39.7815 141.172 40.4907L184.522 45.1479C184.894 45.0843 189.046 44.2227 191.074 37.7067C193.21 30.8427 190.989 8.07509 190.927 7.45949C190.872 7.17149 189.547 0.528292 184.615 0.528292H184.614Z" fill="black"/>
<path d="M184.965 45.4467C191.615 45.4467 197.005 35.3409 197.005 22.8747C197.005 10.4086 191.615 0.302734 184.965 0.302734C178.316 0.302734 172.926 10.4086 172.926 22.8747C172.926 35.3409 178.316 45.4467 184.965 45.4467Z" fill="white" fill-opacity="0.18"/>
<path d="M184.965 45.7111C178.18 45.7111 172.661 35.4667 172.661 22.8751C172.661 10.2835 178.181 0.0390625 184.965 0.0390625C191.748 0.0390625 197.268 10.2835 197.268 22.8751C197.268 35.4667 191.748 45.7111 184.965 45.7111ZM184.965 0.568259C178.472 0.568259 173.189 10.5751 173.189 22.8763C173.189 35.1775 178.472 45.1843 184.965 45.1843C191.458 45.1843 196.74 35.1775 196.74 22.8763C196.74 10.5751 191.458 0.568259 184.965 0.568259Z" fill="black"/>
<path d="M177.123 32.2906C176.985 32.2906 176.869 32.1826 176.86 32.0434C176.851 31.8982 176.962 31.7722 177.107 31.7638C180.256 31.567 183.235 29.4994 184.521 26.6194C185.807 23.7394 185.359 20.1406 183.404 17.665C181.87 15.7234 179.435 14.491 176.888 14.3698C176.743 14.3626 176.63 14.239 176.637 14.0938C176.644 13.9486 176.768 13.837 176.913 13.843C179.611 13.9714 182.192 15.2782 183.818 17.3386C185.891 19.9642 186.367 23.7814 185.003 26.8354C183.639 29.8906 180.479 32.083 177.14 32.2918C177.134 32.2918 177.129 32.2918 177.123 32.2918V32.2906Z" fill="black"/>
<path d="M188.626 40.5115C188.578 40.5115 188.529 40.4983 188.486 40.4707C188.362 40.3927 188.326 40.2295 188.404 40.1071C190.932 36.1111 192.591 31.5475 193.206 26.9095C194.035 20.6527 192.976 14.0779 190.227 8.39714C189.831 7.57993 189.433 6.86953 189.008 6.22513C188.928 6.10393 188.961 5.93953 189.084 5.85913C189.205 5.77873 189.369 5.81233 189.45 5.93473C189.888 6.59953 190.298 7.32913 190.704 8.16793C193.498 13.9411 194.574 20.6215 193.731 26.9803C193.107 31.6927 191.42 36.3295 188.852 40.3903C188.802 40.4695 188.716 40.5139 188.629 40.5139L188.626 40.5115Z" fill="black"/>
<path d="M130.78 63.7809C130.78 63.7809 144.009 66.1485 151.446 60.7161L149.927 57.4089C149.927 57.4089 151.892 55.4673 149.902 54.7557C149.902 54.7557 151.752 51.0669 148.539 50.8485C148.539 50.8485 150.677 46.0377 145.738 46.9521C145.738 46.9521 148.706 41.5245 143.171 42.8373C138.792 43.8753 137.879 45.3009 137.879 45.3009C137.879 45.3009 140.322 39.2541 137.26 39.8793C136.299 40.0761 134.828 40.7109 133.275 41.6781C128.285 44.7849 126.172 50.9793 128.163 56.5101L130.78 63.7821V63.7809Z" fill="white"/>
<path d="M135.089 74.7817C134.983 74.7817 134.882 74.7169 134.843 74.6125L127.915 56.6065C125.886 50.9701 128.082 44.6005 133.134 41.4553C134.633 40.5217 136.154 39.8365 137.206 39.6217C137.86 39.4873 138.354 39.6169 138.678 40.0045C139.445 40.9261 138.905 43.1077 138.48 44.4097C139.241 43.8817 140.64 43.1665 143.11 42.5821C144.773 42.1873 145.892 42.3493 146.437 43.0645C147.191 44.0533 146.567 45.7885 146.195 46.6177C147.446 46.4701 148.33 46.7137 148.825 47.3425C149.6 48.3253 149.155 49.9345 148.908 50.6281C149.628 50.7445 150.138 51.0589 150.428 51.5677C151.004 52.5757 150.499 54.0337 150.253 54.6205C150.684 54.8305 150.943 55.1281 151.027 55.5085C151.201 56.2921 150.54 57.1333 150.241 57.4645L151.488 60.1789C151.549 60.3109 151.49 60.4681 151.358 60.5293C151.225 60.5893 151.069 60.5317 151.008 60.3997L149.687 57.5233C149.64 57.4225 149.663 57.3037 149.741 57.2257C149.998 56.9713 150.637 56.1853 150.512 55.6225C150.454 55.3597 150.218 55.1533 149.813 55.0081C149.742 54.9829 149.684 54.9277 149.657 54.8581C149.629 54.7885 149.632 54.7093 149.665 54.6409C149.674 54.6229 150.551 52.8445 149.97 51.8293C149.728 51.4057 149.239 51.1657 148.519 51.1165C148.433 51.1105 148.356 51.0637 148.312 50.9893C148.267 50.9161 148.261 50.8249 148.296 50.7457C148.306 50.7253 149.201 48.6709 148.41 47.6701C147.98 47.1253 147.097 46.9729 145.784 47.2153C145.685 47.2333 145.583 47.1937 145.523 47.1109C145.463 47.0281 145.456 46.9189 145.505 46.8289C145.868 46.1617 146.671 44.2417 146.017 43.3861C145.615 42.8605 144.653 42.7609 143.231 43.0969C139.055 44.0869 138.107 45.4357 138.098 45.4489C138.023 45.5605 137.874 45.5989 137.754 45.5365C137.634 45.4729 137.581 45.3313 137.632 45.2053C138.058 44.1505 139.002 41.2225 138.27 40.3441C138.079 40.1149 137.764 40.0477 137.31 40.1401C136.316 40.3429 134.86 41.0029 133.411 41.9041C128.569 44.9185 126.464 51.0253 128.407 56.4229L135.332 74.4229C135.385 74.5585 135.317 74.7121 135.181 74.7649C135.15 74.7769 135.118 74.7829 135.086 74.7829L135.089 74.7817Z" fill="black"/>
<path d="M133.949 54.3518L139.376 64.8674C140.302 66.6638 142.452 67.4498 144.32 66.6734C146.333 65.8358 147.263 63.5066 146.38 61.5122L146.025 60.7106C146.025 60.7106 142.016 61.4378 143.588 58.7522C143.588 58.7522 139.048 59.2934 141.293 55.7462C141.293 55.7462 140.178 56.1158 139.192 55.667C137.751 55.0106 136.583 53.177 139.572 50.6006C137.261 51.6038 135.09 51.2042 135.09 51.2042C135.09 51.2042 134.508 53.2286 133.95 54.3506L133.949 54.3518Z" fill="black"/>
<path d="M137.738 51.8705C137.644 51.8705 137.553 51.8213 137.505 51.7325C137.435 51.6041 137.482 51.4445 137.61 51.3749C139.97 50.0909 142.332 48.7373 144.635 47.3525C144.76 47.2769 144.922 47.3177 144.998 47.4425C145.073 47.5673 145.032 47.7293 144.908 47.8049C142.599 49.1945 140.229 50.5517 137.864 51.8393C137.824 51.8609 137.78 51.8717 137.738 51.8717V51.8705Z" fill="black"/>
<path d="M139.143 57.345C139.048 57.345 138.957 57.2934 138.909 57.2046C138.84 57.0762 138.89 56.9154 139.019 56.8482C142.142 55.1994 145.203 53.3562 148.119 51.369C148.24 51.2874 148.403 51.3174 148.486 51.4386C148.568 51.5598 148.538 51.7242 148.416 51.8058C145.484 53.805 142.406 55.659 139.266 57.3162C139.227 57.3366 139.185 57.3462 139.143 57.3462V57.345Z" fill="black"/>
<path d="M141.923 59.88C141.829 59.88 141.739 59.8308 141.691 59.7432C141.62 59.616 141.667 59.4552 141.796 59.3844L148.591 55.638C148.72 55.5684 148.879 55.614 148.95 55.7424C149.021 55.8696 148.974 56.0304 148.846 56.1012L142.05 59.8476C142.009 59.8692 141.966 59.88 141.923 59.88Z" fill="black"/>
<path d="M135.497 51.767C135.497 51.767 135.488 51.767 135.483 51.767C134.567 51.719 133.939 50.8142 133.88 50.003C133.75 48.1958 135.053 46.5362 137.753 45.071C137.882 45.0014 138.041 45.0494 138.111 45.1766C138.181 45.305 138.133 45.4658 138.005 45.5354C135.505 46.8926 134.294 48.383 134.407 49.9658C134.449 50.5562 134.902 51.209 135.509 51.2402C135.655 51.2474 135.767 51.3722 135.759 51.5174C135.752 51.659 135.635 51.7682 135.495 51.7682L135.497 51.767Z" fill="black"/>
<path d="M22.6977 36.3627C19.8273 34.0611 17.1477 31.0527 15.6681 32.5479C14.1885 34.0431 18.1353 38.0703 18.1353 38.0703C13.6173 37.3863 10.8585 31.7439 9.08613 32.4231C7.31253 33.1023 8.60013 35.9343 8.60013 35.9343C8.60013 35.9343 6.84453 32.3835 4.74813 33.6927C2.65053 35.0019 5.68893 38.7543 5.68893 38.7543C5.68893 38.7543 2.99373 35.6007 1.23933 38.0595C-0.515067 40.5183 7.79613 45.3195 7.79613 45.3195C6.13173 44.4807 3.41493 44.0883 2.99253 45.3519C2.57013 46.6155 5.61693 47.9643 8.69133 49.8507C11.7657 51.7359 16.6113 52.9791 16.6113 52.9791C16.0389 59.2083 15.4029 64.6563 15.1485 69.2319C15.0273 71.4171 16.4961 73.3815 18.6273 73.8771C19.0449 73.9743 19.4637 74.0607 19.8837 74.1387C23.5005 74.8071 27.2229 74.8047 30.8649 74.3463L30.9081 74.3403C33.3201 74.0355 34.9977 71.7903 34.6017 69.3915C33.6645 63.7167 31.7397 54.5667 30.9381 48.9051C29.8737 41.3955 25.5717 38.6631 22.7013 36.3615L22.6977 36.3627Z" fill="white"/>
<path d="M15.2112 71.5974H15.2076C15.0612 71.5962 14.9448 71.4762 14.946 71.3298C15.006 66.2442 15.4308 60.6366 16.32 53.1738C15.3204 52.9038 11.2848 51.7506 8.55117 50.0742C7.89837 49.6734 7.25157 49.3002 6.62637 48.939C4.13757 47.5026 2.33997 46.4646 2.74077 45.2658C2.85957 44.9094 3.13437 44.6346 3.53517 44.469C4.13877 44.2206 4.97877 44.2278 5.82597 44.3862C3.91437 43.0974 1.15437 40.971 0.776373 39.2274C0.668373 38.7294 0.751171 38.2842 1.02237 37.9026C1.49637 37.2378 2.08197 36.8862 2.76237 36.8562C3.36837 36.825 3.96117 37.0674 4.46517 37.3746C4.02237 36.5562 3.63237 35.547 3.77397 34.6986C3.86277 34.1694 4.14237 33.7554 4.60557 33.465C5.12877 33.1386 5.67717 33.0534 6.23757 33.213C6.89877 33.4014 7.47237 33.9078 7.91037 34.425C7.85757 33.975 7.87437 33.4986 8.04237 33.0858C8.21997 32.6538 8.53796 32.3466 8.98916 32.1738C9.93836 31.8102 10.98 32.8194 12.2976 34.095C13.662 35.4162 15.3228 37.023 17.3664 37.6266C16.2636 36.3714 14.1864 33.6642 15.4776 32.3598C16.8348 30.9882 18.8436 32.7222 21.1692 34.7298C21.7188 35.2038 22.2876 35.6946 22.86 36.1542C23.106 36.351 23.3616 36.5514 23.6256 36.7578C26.4024 38.9262 30.2052 41.8974 31.1928 48.867C31.2588 49.3362 31.752 52.0026 32.322 55.0926C33.1692 59.6838 34.224 65.397 34.3428 66.4074C34.3596 66.5526 34.2564 66.6834 34.1112 66.7002C33.9672 66.717 33.8352 66.6138 33.8184 66.4686C33.702 65.4762 32.6484 59.7714 31.8036 55.1874C31.2324 52.0926 30.7392 49.4202 30.6708 48.9402C29.712 42.1818 26.1576 39.405 23.3016 37.173C23.0364 36.9654 22.7784 36.7638 22.53 36.5658C21.9492 36.1002 21.378 35.607 20.8248 35.1294C18.6984 33.2958 16.8624 31.7106 15.8532 32.7306C14.79 33.8046 17.274 36.8142 18.3204 37.8822C18.3996 37.9638 18.4188 38.0862 18.3672 38.187C18.3156 38.2878 18.204 38.3466 18.0924 38.3274C15.5064 37.9362 13.5228 36.0162 11.9292 34.473C10.7916 33.3726 9.80877 32.4234 9.17637 32.6646C8.86197 32.7846 8.65077 32.9874 8.52957 33.2826C8.13357 34.2462 8.82957 35.8038 8.83677 35.8194C8.89677 35.9502 8.83917 36.105 8.70957 36.1674C8.57997 36.2298 8.42397 36.1746 8.36037 36.0462C8.35077 36.027 7.37397 34.083 6.09117 33.7194C5.67597 33.6018 5.28117 33.6654 4.88517 33.9126C4.55157 34.1214 4.35717 34.4058 4.29477 34.7838C4.04397 36.2766 5.87277 38.5602 5.89197 38.583C5.98317 38.6946 5.96637 38.859 5.85597 38.9526C5.74437 39.045 5.57997 39.0318 5.48637 38.9214C5.47317 38.9058 4.09557 37.3206 2.78517 37.383C2.26917 37.4058 1.83357 37.6758 1.45317 38.2086C1.26957 38.4666 1.21677 38.763 1.29237 39.1134C1.81677 41.5314 7.86597 45.051 7.92717 45.0858C8.05077 45.1578 8.09517 45.3138 8.02797 45.4398C7.95957 45.5658 7.80357 45.615 7.67637 45.5502C6.51237 44.9634 4.67517 44.5686 3.73677 44.955C3.47517 45.063 3.31317 45.219 3.24237 45.4314C2.97837 46.221 4.87917 47.3178 6.89157 48.4794C7.52037 48.8418 8.16957 49.2174 8.82837 49.6218C11.8332 51.465 16.6272 52.707 16.6752 52.7202C16.8036 52.7538 16.8876 52.8762 16.872 53.007C15.9672 60.5646 15.5364 66.2166 15.4752 71.3346C15.474 71.4798 15.3552 71.5962 15.2112 71.5962V71.5974Z" fill="black"/>
<path d="M10.6286 46.8903C10.5878 46.8903 10.5458 46.8807 10.5062 46.8603L7.97419 45.5415C7.84459 45.4743 7.79419 45.3147 7.86259 45.1851C7.92979 45.0555 8.08938 45.0051 8.21898 45.0735L10.751 46.3923C10.8806 46.4595 10.931 46.6191 10.8626 46.7487C10.8158 46.8387 10.7234 46.8903 10.6286 46.8903Z" fill="black"/>
<path d="M12.5182 42.968C12.4846 42.968 12.451 42.962 12.4174 42.9476C10.1026 41.9936 7.927 40.73 5.9506 39.1928C5.8354 39.1028 5.815 38.9372 5.9038 38.822C5.9938 38.7068 6.1594 38.6852 6.2746 38.7764C8.2138 40.2848 10.3486 41.5244 12.619 42.4604C12.7534 42.5156 12.8182 42.6704 12.763 42.8048C12.721 42.9068 12.6226 42.968 12.5182 42.968Z" fill="black"/>
<path d="M14.7532 39.9967C14.7268 39.9967 14.6992 39.9931 14.6716 39.9835C12.4828 39.2731 10.42 38.0876 8.70516 36.554C8.59596 36.4568 8.58756 36.2899 8.68476 36.1807C8.78196 36.0715 8.94876 36.0632 9.05796 36.1604C10.7188 37.646 12.7156 38.7943 14.8348 39.4819C14.974 39.5275 15.0496 39.6764 15.004 39.8144C14.968 39.926 14.8648 39.9967 14.7532 39.9967Z" fill="black"/>
<path d="M19.1297 45.3757C18.9977 45.3757 18.8825 45.2761 18.8681 45.1417C18.7793 44.3497 18.9221 43.5673 19.0601 42.8113C19.1201 42.4813 19.1825 42.1393 19.2233 41.8057C19.3133 41.0665 19.3337 39.7189 18.4553 38.9977C18.3425 38.9053 18.3257 38.7385 18.4181 38.6257C18.5105 38.5129 18.6773 38.4973 18.7901 38.5885C19.8641 39.4693 19.8509 41.0221 19.7477 41.8681C19.7057 42.2173 19.6409 42.5665 19.5797 42.9049C19.4429 43.6561 19.3133 44.3665 19.3937 45.0805C19.4105 45.2257 19.3061 45.3565 19.1609 45.3733C19.1513 45.3733 19.1405 45.3745 19.1309 45.3745L19.1297 45.3757Z" fill="black"/>
<path d="M19.2 54.5865C19.1388 54.5865 19.0776 54.5661 19.0284 54.5229C18.4524 54.0273 17.802 53.6325 17.0952 53.3505C16.9596 53.2965 16.8936 53.1429 16.9476 53.0073C17.0016 52.8717 17.1552 52.8057 17.2908 52.8597C18.0516 53.1633 18.7524 53.5881 19.3728 54.1221C19.4832 54.2169 19.4964 54.3837 19.4004 54.4941C19.3476 54.5553 19.2744 54.5865 19.2 54.5865Z" fill="black"/>
<path d="M76.0038 92.8917C74.6106 92.8917 73.2186 92.6937 71.8818 92.2893C67.923 91.0929 64.557 88.1217 62.8782 84.3417C62.8194 84.2085 62.8782 84.0525 63.0126 83.9925C63.1458 83.9337 63.3018 83.9925 63.3606 84.1269C64.9782 87.7677 68.2206 90.6297 72.0342 91.7829C75.8478 92.9361 80.133 92.3493 83.4966 90.2145C83.6202 90.1353 83.7834 90.1725 83.8614 90.2961C83.9394 90.4197 83.9034 90.5829 83.7798 90.6609C81.4674 92.1297 78.735 92.8917 76.0038 92.8917Z" fill="black"/>
<path d="M100.544 90.9087C99.4076 90.9087 98.2712 90.7755 97.1648 90.5043C97.0232 90.4695 96.9368 90.3267 96.9716 90.1851C97.0064 90.0435 97.1504 89.9559 97.2908 89.9919C101.16 90.9423 105.408 90.1311 108.655 87.8223C111.902 85.5123 114.062 81.7659 114.433 77.7987C114.446 77.6535 114.573 77.5455 114.721 77.5599C114.866 77.5731 114.973 77.7027 114.96 77.8479C114.574 81.9651 112.332 85.8555 108.962 88.2519C106.52 89.9883 103.532 90.9087 100.544 90.9087Z" fill="black"/>
<path d="M36.5327 88.692C36.3947 88.692 36.2783 88.584 36.2699 88.4436L35.3315 73.0092C35.3231 72.864 35.4335 72.738 35.5787 72.7296C35.7239 72.7248 35.8499 72.8316 35.8583 72.9768L36.7967 88.4112C36.8051 88.5564 36.6947 88.6824 36.5495 88.6908C36.5435 88.6908 36.5387 88.6908 36.5327 88.6908V88.692Z" fill="black"/>
<path d="M79.2966 30.5643L76.5174 46.1715C76.2978 47.4051 75.2922 48.3459 74.0478 48.4839L63.6426 49.6371C63.6426 49.6371 71.445 56.0475 86.3526 55.7475C101.26 55.4475 104.56 49.8027 104.56 49.8027L93.051 48.5355C91.5882 48.3747 90.4866 47.1291 90.5034 45.6579L90.615 36.3363C90.615 36.3363 82.5162 28.7667 79.2966 30.5655V30.5643Z" fill="white"/>
<path d="M78.3553 29.7824C77.6845 30.1904 77.3701 31.064 77.5357 31.832C77.7001 32.6 78.2881 33.2384 79.0021 33.566C79.7149 33.8936 80.5381 33.9308 81.3085 33.7808C82.0309 36.2432 90.5629 40.7456 93.3325 37.6772C95.2777 35.522 94.9561 30.008 94.2541 27.1916C93.5521 24.3752 92.3281 21.6908 91.8637 18.8252C88.6249 19.5896 85.4113 20.684 82.6765 22.58C82.0705 23 81.4825 23.4668 81.0517 24.0656C80.6221 24.6644 80.3617 25.4156 80.4757 26.144C80.5921 26.8892 81.0745 27.5252 81.2977 28.2452C81.4657 28.7876 81.4261 30.0548 80.6329 30.0956C80.2777 30.1136 79.9129 29.6912 79.5625 29.6072C79.1593 29.51 78.7117 29.5652 78.3565 29.7824H78.3553Z" fill="white"/>
<path d="M90.5518 38.9782C89.9566 38.9782 89.3026 38.8978 88.5946 38.737C85.4326 38.0158 81.8746 35.7694 81.1354 34.0786C80.521 34.171 79.693 34.1746 78.8902 33.8062C78.067 33.4282 77.449 32.6938 77.2762 31.8874C77.083 30.9862 77.479 30.0058 78.217 29.557C78.6238 29.3098 79.1362 29.2354 79.6222 29.3506C79.8166 29.3974 79.993 29.5114 80.1634 29.6206C80.3302 29.7274 80.5018 29.8438 80.6182 29.833C80.7466 29.827 80.8438 29.7706 80.923 29.6554C81.1522 29.3278 81.1474 28.6594 81.0442 28.3246C80.9566 28.0426 80.827 27.775 80.689 27.4906C80.491 27.0826 80.287 26.6602 80.2126 26.1862C80.0962 25.4422 80.3182 24.6346 80.8354 23.9134C81.3118 23.2498 81.9562 22.7578 82.5238 22.3642C84.9178 20.7034 87.8662 19.4974 91.801 18.5686C91.873 18.5518 91.9474 18.565 92.0086 18.6058C92.0698 18.6466 92.1106 18.7102 92.1226 18.7834C92.3938 20.4574 92.9398 22.1074 93.469 23.7022C93.8386 24.8158 94.2202 25.9678 94.5082 27.1282C95.1226 29.593 95.6902 35.4574 93.5254 37.855C92.8534 38.6002 91.8418 38.9782 90.5506 38.9782H90.5518ZM81.3082 33.517C81.4234 33.517 81.5278 33.5926 81.5614 33.7066C81.9694 35.0974 85.3498 37.4542 88.7134 38.221C90.1402 38.5462 92.0662 38.6854 93.1354 37.501C94.9606 35.479 94.729 30.1918 93.997 27.2554C93.7126 26.1142 93.3346 24.973 92.9686 23.8678C92.4622 22.3414 91.9402 20.7658 91.651 19.147C87.919 20.0518 85.1098 21.2146 82.8274 22.7974C82.297 23.1658 81.697 23.6218 81.2674 24.2206C80.8366 24.8206 80.6434 25.5058 80.737 26.1046C80.7982 26.5006 80.977 26.869 81.1666 27.2602C81.307 27.5494 81.4522 27.8494 81.5506 28.1686C81.6862 28.6042 81.715 29.4478 81.3586 29.959C81.1846 30.2074 80.9386 30.3466 80.647 30.3622C80.359 30.373 80.1046 30.2122 79.879 30.0658C79.7458 29.9806 79.609 29.8918 79.501 29.8654C79.1542 29.7826 78.7774 29.8366 78.493 30.0094C77.9398 30.3454 77.6458 31.0894 77.7946 31.7782C77.9326 32.425 78.4378 33.0178 79.1122 33.3274C79.8898 33.6838 80.7082 33.631 81.2578 33.523C81.2746 33.5194 81.2914 33.5182 81.3082 33.5182V33.517Z" fill="black"/>
<path d="M81.9468 32.4154C81.9 32.4154 81.8532 32.4034 81.8112 32.377C81.1092 31.9546 80.346 31.6642 79.5408 31.5154C79.3968 31.489 79.3032 31.351 79.3296 31.2082C79.356 31.0642 79.4928 30.9694 79.6368 30.997C80.5044 31.1578 81.3276 31.4698 82.0836 31.9258C82.2084 32.0014 82.2492 32.1634 82.1736 32.2882C82.1244 32.371 82.0368 32.4154 81.9468 32.4154Z" fill="black"/>
</svg>
