<svg xmlns="http://www.w3.org/2000/svg" width="36" height="37" viewBox="0 0 36 37" fill="none">
  <path d="M29.025 15.3751C28.005 10.2001 23.46 6.31506 18 6.31506C13.665 6.31506 9.9 8.77506 8.025 12.3751C3.51 12.8551 0 16.6801 0 21.3151C0 26.2801 4.035 30.3151 9 30.3151H28.5C32.64 30.3151 36 26.9551 36 22.8151C36 18.8551 32.925 15.6451 29.025 15.3751ZM28.5 27.3151H9C5.685 27.3151 3 24.6301 3 21.3151C3 18.2401 5.295 15.6751 8.34 15.3601L9.945 15.1951L10.695 13.7701C12.12 11.0251 14.91 9.31506 18 9.31506C21.93 9.31506 25.32 12.1051 26.085 15.9601L26.535 18.2101L28.83 18.3751C31.17 18.5251 33 20.4901 33 22.8151C33 25.2901 30.975 27.3151 28.5 27.3151ZM12 19.8151H15.825V24.3151H20.175V19.8151H24L18 13.8151L12 19.8151Z" fill="#644EE5"/>
</svg>