<svg width="25" height="30" viewBox="0 0 25 30" fill="none" xmlns="http://www.w3.org/2000/svg">
<path d="M23.2905 10.7917C23.1202 10.9222 20.1138 12.5953 20.1138 16.3156C20.1138 20.6188 23.9393 22.1411 24.0538 22.1788C24.0362 22.2716 23.4461 24.2637 22.0369 26.2935C20.7803 28.0797 19.4679 29.863 17.4715 29.863C15.475 29.863 14.9612 28.7176 12.6565 28.7176C10.4105 28.7176 9.61195 29.9007 7.78579 29.9007C5.95964 29.9007 4.68544 28.2479 3.2204 26.2181C1.52343 23.8345 0.152344 20.1316 0.152344 16.6172C0.152344 10.9802 3.86337 7.99063 7.51569 7.99063C9.45634 7.99063 11.074 9.24909 12.2925 9.24909C13.4522 9.24909 15.2607 7.91523 17.4685 7.91523C18.3053 7.91523 21.3117 7.99063 23.2905 10.7917ZM16.4204 5.52879C17.3335 4.4588 17.9794 2.97416 17.9794 1.48952C17.9794 1.28364 17.9618 1.07486 17.9236 0.906677C16.438 0.961771 14.6706 1.88387 13.6048 3.10464C12.7681 4.04414 11.9871 5.52879 11.9871 7.03373C11.9871 7.2599 12.0253 7.48608 12.0429 7.55857C12.1369 7.57597 12.2895 7.59627 12.4422 7.59627C13.7751 7.59627 15.4515 6.71476 16.4204 5.52879Z" fill="white"/>
</svg>
