<svg width="35" height="18" viewBox="0 0 35 18" fill="none" xmlns="http://www.w3.org/2000/svg">
<rect x="0.70646" y="0.194741" width="33.9777" height="17.6105" rx="1.36319" fill="white" stroke="#B2BCCA" strokeWidth="0.389482"/>
<path d="M27.0078 17.5266L34.408 15.2871V16.3582C34.408 17.0035 33.8848 17.5266 33.2395 17.5266H27.0078Z" fill="#FD6020"/>
<path d="M23.1494 9.25075L24.418 6.83376H25.3691L23.4141 10.5008H22.9385L20.9834 6.83376H21.9346L23.1494 9.25075ZM14.8594 6.83278C15.2291 6.83279 15.6518 6.87285 15.9688 7.03395V7.8406C15.7046 7.59884 15.282 7.43729 14.8594 7.43727C14.0142 7.47756 13.3272 8.04168 13.3799 8.6863V8.76735C13.38 9.41195 14.067 9.89527 14.9121 9.89528C15.3347 9.89528 15.7046 9.73373 15.9688 9.49196V10.2986C15.599 10.4195 15.2292 10.4998 14.8066 10.4998C13.4859 10.4998 12.4287 9.65363 12.4287 8.64626C12.4287 7.59858 13.4858 6.75219 14.8594 6.83278ZM10.6328 6.7527C11.1082 6.7527 11.5843 6.91333 11.9541 7.15505L11.4785 7.63942C11.2673 7.47831 11.0033 7.35729 10.7393 7.3572C10.4225 7.31693 10.1585 7.51797 10.1055 7.75954C10.1055 7.96102 10.2637 8.04172 10.792 8.2029C11.8484 8.52521 12.1122 8.76731 12.165 9.25075V9.37185C12.1121 10.0165 11.4253 10.5 10.5801 10.4597C9.9463 10.4596 9.31205 10.2183 8.99512 9.77517L9.57715 9.33181C9.73575 9.61356 10.1051 9.81512 10.5273 9.8152H10.5801C10.8971 9.8152 11.2148 9.57286 11.2148 9.29079C11.2147 9.12978 11.1086 9.00902 10.9502 8.92849C10.7389 8.84792 10.5277 8.76762 10.3164 8.72731C9.47114 8.52584 9.20703 8.24308 9.20703 7.75954V7.7195C9.25994 7.15555 9.89346 6.71262 10.6328 6.7527ZM5.13965 6.83376C6.40743 6.87405 7.41103 7.67929 7.3584 8.64626C7.35829 9.16994 7.04178 9.65379 6.51367 10.0164C6.03832 10.2983 5.45687 10.46 4.87598 10.4197H3.55469V6.83376H5.13965ZM8.62793 10.4197H7.72949V6.83376H8.62793V10.4197ZM28.3359 7.43825H26.6982V8.24392H28.2832V8.84841H26.6982V9.8152H28.3359V10.4197H25.7998V6.83376H28.3359V7.43825ZM30.2354 6.83376C31.2917 6.83378 31.8729 7.19584 31.873 7.88063C31.9257 8.40436 31.4502 8.84789 30.8164 8.92849L32.2432 10.4197H31.1338L29.918 8.96852H29.8125V10.4197H28.9141V6.83376H30.2354ZM4.72168 7.43727H4.45703V9.81423H4.72168C5.14396 9.85449 5.61955 9.73415 5.93652 9.53298C6.25328 9.29137 6.41189 8.96857 6.41211 8.60622C6.41211 8.28386 6.2535 7.96127 5.93652 7.7195C5.61956 7.51812 5.14421 7.397 4.72168 7.43727ZM29.8164 8.48513H30.0811C30.662 8.48512 30.9266 8.28315 30.9268 7.92067C30.9265 7.59855 30.6619 7.39725 30.0811 7.39724H29.8164V8.48513Z" fill="#333333"/>
<path fillRule="evenodd" clipRule="evenodd" d="M18.6567 6.75C17.336 6.75 16.2266 7.5559 16.2266 8.60358C16.2266 9.61096 17.2831 10.4572 18.6567 10.4975C20.0303 10.5377 21.0869 9.69155 21.1397 8.64387C21.0869 7.5962 20.0303 6.75 18.6567 6.75V6.75Z" fill="#FD6020"/>
</svg>
