<svg width="35" height="18" viewBox="0 0 35 18" fill="none" xmlns="http://www.w3.org/2000/svg">
<rect x="0.819741" y="0.194741" width="33.9777" height="17.6105" rx="1.36319" fill="white" stroke="#B2BCCA" strokeWidth="0.389482"/>
<path d="M22.4404 3.77344C26.2257 3.77348 29.2939 6.02362 29.2939 8.79883C29.2937 11.5739 26.2255 13.8232 22.4404 13.8232C20.7427 13.8232 19.1904 13.3687 17.9932 12.6191C16.796 13.3687 15.2437 13.8232 13.5459 13.8232C9.76076 13.8232 6.69169 11.5739 6.69141 8.79883C6.69141 6.0236 9.76058 3.77344 13.5459 3.77344C15.2434 3.77346 16.796 4.22716 17.9932 4.97656C19.1903 4.22721 20.7429 3.77344 22.4404 3.77344Z" fill="#ED0006"/>
<path d="M22.4473 3.77344C26.2325 3.77348 29.3008 6.02362 29.3008 8.79883C29.3005 11.5739 26.2324 13.8232 22.4473 13.8232C20.7495 13.8232 19.1972 13.3687 18 12.6191C19.4719 11.6976 20.4061 10.3291 20.4062 8.79883C20.4062 7.26818 19.4723 5.89823 18 4.97656C19.1971 4.22721 20.7498 3.77344 22.4473 3.77344Z" fill="#F9A000"/>
<path d="M17.9893 4.97607C19.4616 5.89774 20.3955 7.26769 20.3955 8.79834C20.3953 10.3286 19.4611 11.6971 17.9893 12.6187C16.5173 11.6971 15.5822 10.3287 15.582 8.79834C15.582 7.26764 16.5168 5.89774 17.9893 4.97607Z" fill="#FD6020"/>
</svg>
