<svg width="29" height="33" viewBox="0 0 29 33" fill="none" xmlns="http://www.w3.org/2000/svg">
<path d="M21.3911 21.2639C25.0607 19.2129 27.8669 17.6503 28.1067 17.5282C28.8742 17.1131 29.6657 16.0144 28.1067 15.1598C27.6031 14.8912 24.8928 13.3774 21.3911 11.4241L16.5703 16.3562L21.3911 21.2639Z" fill="#FFDD33"/>
<path d="M16.5697 16.3562L1.17188 32.1537C1.53164 32.2025 1.93937 32.1048 2.41905 31.8363C3.42639 31.2747 14.1234 25.3171 21.3906 21.2639L16.5697 16.3562Z" fill="#FF6666"/>
<path d="M16.5703 16.3562L21.3911 11.424C21.3911 11.424 3.49889 1.48653 2.4196 0.900536C2.01187 0.656371 1.55617 0.583121 1.14844 0.656371L16.5703 16.3562Z" fill="#7BFF7B"/>
<path d="M16.5692 16.3562L1.14734 0.656372C0.523747 0.802871 -0.00390625 1.36445 -0.00390625 2.51203C-0.00390625 4.34326 -0.00390625 28.7598 -0.00390625 30.298C-0.00390625 31.3479 0.403826 32.1048 1.17132 32.1781L16.5692 16.3562Z" fill="#6ED8FF"/>
</svg>
