<svg width="36" height="18" viewBox="0 0 36 18" fill="none" xmlns="http://www.w3.org/2000/svg">
<rect x="1.15568" y="0.194741" width="33.9777" height="17.6105" rx="1.36319" fill="white" stroke="#B2BCCA" strokeWidth="0.389482"/>
<path fillRule="evenodd" clipRule="evenodd" d="M11.8309 11.8955H9.74894L8.1877 7.34612C8.1136 7.13684 7.95626 6.95184 7.72481 6.86464C7.14721 6.64551 6.51074 6.47112 5.81641 6.38316V6.20801H9.17033C9.63321 6.20801 9.98038 6.47112 10.0382 6.77668L10.8483 10.0583L12.9293 6.20801H14.9534L11.8309 11.8955ZM16.1147 11.8955H14.1484L15.7675 6.20801H17.7338L16.1147 11.8955ZM20.2738 7.78296C20.3317 7.47663 20.6789 7.30148 21.0839 7.30148C21.7204 7.2575 22.4137 7.34546 22.9923 7.56383L23.3395 6.33928C22.7609 6.16413 22.1244 6.07617 21.5468 6.07617C19.6384 6.07617 18.2497 6.86398 18.2497 7.95735C18.2497 8.78913 19.2334 9.22588 19.9277 9.48898C20.6789 9.75133 20.9682 9.92648 20.9103 10.1888C20.9103 10.5824 20.3317 10.7575 19.7541 10.7575C19.0598 10.7575 18.3654 10.6263 17.73 10.4072L17.3828 11.6325C18.0771 11.8509 18.8283 11.9388 19.5227 11.9388C21.6625 11.9821 22.9923 11.195 22.9923 10.0137C22.9923 8.52603 20.2738 8.43883 20.2738 7.78296ZM29.8768 11.8955L28.3155 6.20801H26.6386C26.2914 6.20801 25.9443 6.38316 25.8285 6.64551L22.9375 11.8955H24.9616L25.3656 11.0645H27.8527L28.0841 11.8955H29.8768ZM26.9204 7.73877L27.498 9.8823H25.8789L26.9204 7.73877Z" fill="#28356A"/>
</svg>
